# xmcd
#
# Track frame offsets: 
#        150
#        22856
#        38822
#        68217
#        90257
#        109628
#        125193
#        142469
#        161184
#        179200
#        192687
#        209961
#        223355
#        245018
#        265500
#        285687
#        302719
#        332382
#
# Disc length: 4708 seconds
#
# Revision: 1
# Processed by: cddbd v1.5.2PL0 Copyright (c) Steve Scherf et al.
# Submitted via: ExactAudioCopy v1.0b4
#
DISCID=27126212
DTITLE=Jean-Pierre Danel and Friends - Out of the Blues
DYEAR=2010
DGENRE=Rock
TTITLE0=Sweet Home Chicago
TTITLE1=Revolution
TTITLE2=This Incredible Fortune To Be Two
TTITLE3=Rock Me Baby
TTITLE4=M Appeal
TTITLE5=Hound Dog
TTITLE6=Tulsa Time
TTITLE7=The Way To Your Heart
TTITLE8=Lucille - Rip It Up - Blue Suede Shoes
TTITLE9=All Shook Up
TTITLE10=United Colors
TTITLE11=Saint-Louis Blues
TTITLE12=Straight Ahead
TTITLE13=I Just Can't Stand My Blues
TTITLE14=Double Talk
TTITLE15=Look My Way
TTITLE16=Mindscape
TTITLE17=Out Of The Blues
EXTD=
EXTT0=
EXTT1=
EXTT2=
EXTT3=
EXTT4=
EXTT5=
EXTT6=
EXTT7=
EXTT8=
EXTT9=
EXTT10=
EXTT11=
EXTT12=
EXTT13=
EXTT14=
EXTT15=
EXTT16=
EXTT17=
PLAYORDER=
